<mxfile host="app.diagrams.net" modified="2023-04-10T15:05:49.334Z" agent="Mozilla/5.0 (Windows NT 10.0; Win64; x64) AppleWebKit/537.36 (KHTML, like Gecko) Chrome/111.0.0.0 Safari/537.36" etag="7y_zFIgvE633D8ZokOul" version="21.1.5" type="github">
  <diagram name="Page-1" id="V0nB80aiZzJpeDaO8OGJ">
    <mxGraphModel dx="2284" dy="764" grid="1" gridSize="10" guides="1" tooltips="1" connect="1" arrows="1" fold="1" page="1" pageScale="1" pageWidth="850" pageHeight="1100" math="0" shadow="0">
      <root>
        <mxCell id="0" />
        <mxCell id="1" parent="0" />
        <mxCell id="yOGoXe4YUVA9wJELyfMM-3" value="&lt;b&gt;&lt;i&gt;A TOURNAMENT TRACK APP&lt;/i&gt;&lt;/b&gt;" style="rounded=0;whiteSpace=wrap;html=1;" parent="1" vertex="1">
          <mxGeometry x="80" y="25" width="690" height="600" as="geometry" />
        </mxCell>
        <mxCell id="Or5rSA4idkpQnBIdo2xL-1" value="Server&lt;br&gt;" style="shape=umlActor;verticalLabelPosition=bottom;verticalAlign=top;html=1;" parent="1" vertex="1">
          <mxGeometry x="960" y="200" width="30" height="60" as="geometry" />
        </mxCell>
        <mxCell id="Or5rSA4idkpQnBIdo2xL-3" value="New Team" style="shape=umlActor;verticalLabelPosition=bottom;verticalAlign=top;html=1;" parent="1" vertex="1">
          <mxGeometry x="-60" y="70" width="30" height="60" as="geometry" />
        </mxCell>
        <mxCell id="Or5rSA4idkpQnBIdo2xL-23" value="Register" style="ellipse;whiteSpace=wrap;html=1;" parent="1" vertex="1">
          <mxGeometry x="370" y="40" width="90" height="50" as="geometry" />
        </mxCell>
        <mxCell id="Or5rSA4idkpQnBIdo2xL-26" value="Modify Profile" style="ellipse;whiteSpace=wrap;html=1;" parent="1" vertex="1">
          <mxGeometry x="370" y="340" width="90" height="50" as="geometry" />
        </mxCell>
        <mxCell id="Or5rSA4idkpQnBIdo2xL-27" value="View Event Details" style="ellipse;whiteSpace=wrap;html=1;" parent="1" vertex="1">
          <mxGeometry x="370" y="410" width="90" height="50" as="geometry" />
        </mxCell>
        <mxCell id="Or5rSA4idkpQnBIdo2xL-28" value="View User Profile" style="ellipse;whiteSpace=wrap;html=1;" parent="1" vertex="1">
          <mxGeometry x="370" y="470" width="90" height="55" as="geometry" />
        </mxCell>
        <mxCell id="Or5rSA4idkpQnBIdo2xL-29" value="View Event Result" style="ellipse;whiteSpace=wrap;html=1;" parent="1" vertex="1">
          <mxGeometry x="370" y="540" width="90" height="50" as="geometry" />
        </mxCell>
        <mxCell id="yOGoXe4YUVA9wJELyfMM-16" value="Login" style="ellipse;whiteSpace=wrap;html=1;" parent="1" vertex="1">
          <mxGeometry x="370" y="250" width="90" height="50" as="geometry" />
        </mxCell>
        <mxCell id="yOGoXe4YUVA9wJELyfMM-17" value="Registered team" style="shape=umlActor;verticalLabelPosition=bottom;verticalAlign=top;html=1;outlineConnect=0;" parent="1" vertex="1">
          <mxGeometry x="-60" y="370" width="30" height="60" as="geometry" />
        </mxCell>
        <mxCell id="yOGoXe4YUVA9wJELyfMM-26" value="Desktop application user&lt;br&gt;" style="shape=umlActor;verticalLabelPosition=bottom;verticalAlign=top;html=1;outlineConnect=0;" parent="1" vertex="1">
          <mxGeometry x="-130" y="200" width="30" height="60" as="geometry" />
        </mxCell>
        <mxCell id="yOGoXe4YUVA9wJELyfMM-46" value="" style="endArrow=none;html=1;rounded=0;exitX=1;exitY=0.3333333333333333;exitDx=0;exitDy=0;exitPerimeter=0;entryX=0;entryY=0.5;entryDx=0;entryDy=0;" parent="1" source="yOGoXe4YUVA9wJELyfMM-17" target="Or5rSA4idkpQnBIdo2xL-26" edge="1">
          <mxGeometry width="50" height="50" relative="1" as="geometry">
            <mxPoint x="10" y="395" as="sourcePoint" />
            <mxPoint x="113" y="353" as="targetPoint" />
          </mxGeometry>
        </mxCell>
        <mxCell id="yOGoXe4YUVA9wJELyfMM-47" value="" style="endArrow=none;html=1;rounded=0;entryX=0;entryY=0.5;entryDx=0;entryDy=0;exitX=1;exitY=0.3333333333333333;exitDx=0;exitDy=0;exitPerimeter=0;" parent="1" source="yOGoXe4YUVA9wJELyfMM-17" target="Or5rSA4idkpQnBIdo2xL-27" edge="1">
          <mxGeometry width="50" height="50" relative="1" as="geometry">
            <mxPoint x="-60" y="495" as="sourcePoint" />
            <mxPoint x="53" y="468" as="targetPoint" />
          </mxGeometry>
        </mxCell>
        <mxCell id="yOGoXe4YUVA9wJELyfMM-48" value="" style="endArrow=none;html=1;rounded=0;exitX=1;exitY=0.3333333333333333;exitDx=0;exitDy=0;exitPerimeter=0;entryX=0;entryY=0.5;entryDx=0;entryDy=0;" parent="1" source="yOGoXe4YUVA9wJELyfMM-17" target="Or5rSA4idkpQnBIdo2xL-28" edge="1">
          <mxGeometry width="50" height="50" relative="1" as="geometry">
            <mxPoint x="30" y="415" as="sourcePoint" />
            <mxPoint x="133" y="373" as="targetPoint" />
          </mxGeometry>
        </mxCell>
        <mxCell id="yOGoXe4YUVA9wJELyfMM-49" value="" style="endArrow=none;html=1;rounded=0;exitX=1;exitY=0.3333333333333333;exitDx=0;exitDy=0;exitPerimeter=0;entryX=0;entryY=0.5;entryDx=0;entryDy=0;" parent="1" source="yOGoXe4YUVA9wJELyfMM-17" target="Or5rSA4idkpQnBIdo2xL-29" edge="1">
          <mxGeometry width="50" height="50" relative="1" as="geometry">
            <mxPoint x="40" y="425" as="sourcePoint" />
            <mxPoint x="143" y="383" as="targetPoint" />
          </mxGeometry>
        </mxCell>
        <mxCell id="yOGoXe4YUVA9wJELyfMM-52" value="" style="endArrow=classic;html=1;rounded=0;entryX=1;entryY=0.3333333333333333;entryDx=0;entryDy=0;entryPerimeter=0;exitX=0;exitY=0.3333333333333333;exitDx=0;exitDy=0;exitPerimeter=0;" parent="1" source="yOGoXe4YUVA9wJELyfMM-17" target="yOGoXe4YUVA9wJELyfMM-26" edge="1">
          <mxGeometry width="50" height="50" relative="1" as="geometry">
            <mxPoint x="210" y="310" as="sourcePoint" />
            <mxPoint x="260" y="260" as="targetPoint" />
          </mxGeometry>
        </mxCell>
        <mxCell id="yOGoXe4YUVA9wJELyfMM-53" value="" style="endArrow=classic;html=1;rounded=0;entryX=1;entryY=0.3333333333333333;entryDx=0;entryDy=0;entryPerimeter=0;exitX=0;exitY=0.3333333333333333;exitDx=0;exitDy=0;exitPerimeter=0;" parent="1" source="Or5rSA4idkpQnBIdo2xL-3" target="yOGoXe4YUVA9wJELyfMM-26" edge="1">
          <mxGeometry width="50" height="50" relative="1" as="geometry">
            <mxPoint x="210" y="310" as="sourcePoint" />
            <mxPoint x="260" y="260" as="targetPoint" />
          </mxGeometry>
        </mxCell>
        <mxCell id="typVfKXonG4FbuI6hiRX-1" value="System" style="shape=umlActor;verticalLabelPosition=bottom;verticalAlign=top;html=1;" vertex="1" parent="1">
          <mxGeometry x="880" y="70" width="30" height="60" as="geometry" />
        </mxCell>
        <mxCell id="typVfKXonG4FbuI6hiRX-2" value="Administrator" style="shape=umlActor;verticalLabelPosition=bottom;verticalAlign=top;html=1;" vertex="1" parent="1">
          <mxGeometry x="880" y="370" width="30" height="60" as="geometry" />
        </mxCell>
        <mxCell id="typVfKXonG4FbuI6hiRX-6" value="Create Event" style="ellipse;whiteSpace=wrap;html=1;" vertex="1" parent="1">
          <mxGeometry x="650" y="350" width="90" height="50" as="geometry" />
        </mxCell>
        <mxCell id="typVfKXonG4FbuI6hiRX-7" value="Publish Result" style="ellipse;whiteSpace=wrap;html=1;" vertex="1" parent="1">
          <mxGeometry x="650" y="410" width="90" height="50" as="geometry" />
        </mxCell>
        <mxCell id="typVfKXonG4FbuI6hiRX-8" value="Modify Event" style="ellipse;whiteSpace=wrap;html=1;" vertex="1" parent="1">
          <mxGeometry x="650" y="472.5" width="90" height="50" as="geometry" />
        </mxCell>
        <mxCell id="typVfKXonG4FbuI6hiRX-9" value="Delete Event" style="ellipse;whiteSpace=wrap;html=1;" vertex="1" parent="1">
          <mxGeometry x="650" y="540" width="90" height="50" as="geometry" />
        </mxCell>
        <mxCell id="typVfKXonG4FbuI6hiRX-18" value="" style="endArrow=classic;html=1;rounded=0;exitX=1;exitY=0.3333333333333333;exitDx=0;exitDy=0;exitPerimeter=0;" edge="1" parent="1" source="typVfKXonG4FbuI6hiRX-1">
          <mxGeometry width="50" height="50" relative="1" as="geometry">
            <mxPoint x="910" y="270" as="sourcePoint" />
            <mxPoint x="960" y="220" as="targetPoint" />
            <Array as="points" />
          </mxGeometry>
        </mxCell>
        <mxCell id="typVfKXonG4FbuI6hiRX-19" value="" style="endArrow=classic;html=1;rounded=0;exitX=1;exitY=0.3333333333333333;exitDx=0;exitDy=0;exitPerimeter=0;" edge="1" parent="1" source="typVfKXonG4FbuI6hiRX-2">
          <mxGeometry width="50" height="50" relative="1" as="geometry">
            <mxPoint x="910" y="97.5" as="sourcePoint" />
            <mxPoint x="960" y="220" as="targetPoint" />
            <Array as="points" />
          </mxGeometry>
        </mxCell>
        <mxCell id="typVfKXonG4FbuI6hiRX-21" value="Register For Event" style="ellipse;whiteSpace=wrap;html=1;" vertex="1" parent="1">
          <mxGeometry x="370" y="130" width="90" height="50" as="geometry" />
        </mxCell>
        <mxCell id="typVfKXonG4FbuI6hiRX-23" value="" style="endArrow=none;html=1;rounded=0;exitX=1;exitY=0.5;exitDx=0;exitDy=0;" edge="1" parent="1" source="typVfKXonG4FbuI6hiRX-21">
          <mxGeometry width="50" height="50" relative="1" as="geometry">
            <mxPoint x="830" y="140" as="sourcePoint" />
            <mxPoint x="880" y="90" as="targetPoint" />
          </mxGeometry>
        </mxCell>
        <mxCell id="typVfKXonG4FbuI6hiRX-29" value="" style="endArrow=none;html=1;rounded=0;entryX=0;entryY=0.5;entryDx=0;entryDy=0;exitX=1;exitY=0.3333333333333333;exitDx=0;exitDy=0;exitPerimeter=0;" edge="1" parent="1" source="Or5rSA4idkpQnBIdo2xL-3" target="typVfKXonG4FbuI6hiRX-21">
          <mxGeometry width="50" height="50" relative="1" as="geometry">
            <mxPoint x="180" y="130" as="sourcePoint" />
            <mxPoint x="230" y="80" as="targetPoint" />
          </mxGeometry>
        </mxCell>
        <mxCell id="typVfKXonG4FbuI6hiRX-30" value="" style="endArrow=none;html=1;rounded=0;entryX=0;entryY=0.5;entryDx=0;entryDy=0;" edge="1" parent="1" target="Or5rSA4idkpQnBIdo2xL-23">
          <mxGeometry width="50" height="50" relative="1" as="geometry">
            <mxPoint x="-20" y="90" as="sourcePoint" />
            <mxPoint x="230" y="50" as="targetPoint" />
          </mxGeometry>
        </mxCell>
        <mxCell id="typVfKXonG4FbuI6hiRX-31" value="" style="endArrow=classic;html=1;rounded=0;dashed=1;" edge="1" parent="1">
          <mxGeometry relative="1" as="geometry">
            <mxPoint x="414.5" y="90" as="sourcePoint" />
            <mxPoint x="414.5" y="130" as="targetPoint" />
          </mxGeometry>
        </mxCell>
        <mxCell id="typVfKXonG4FbuI6hiRX-32" value="Include&lt;br&gt;" style="edgeLabel;resizable=0;html=1;align=center;verticalAlign=middle;" connectable="0" vertex="1" parent="typVfKXonG4FbuI6hiRX-31">
          <mxGeometry relative="1" as="geometry">
            <mxPoint y="-10" as="offset" />
          </mxGeometry>
        </mxCell>
        <mxCell id="typVfKXonG4FbuI6hiRX-33" value="" style="endArrow=none;html=1;rounded=0;exitX=1;exitY=0.5;exitDx=0;exitDy=0;entryX=0;entryY=0.3333333333333333;entryDx=0;entryDy=0;entryPerimeter=0;" edge="1" parent="1" source="Or5rSA4idkpQnBIdo2xL-23" target="typVfKXonG4FbuI6hiRX-1">
          <mxGeometry width="50" height="50" relative="1" as="geometry">
            <mxPoint x="590" y="90" as="sourcePoint" />
            <mxPoint x="640" y="40" as="targetPoint" />
          </mxGeometry>
        </mxCell>
        <mxCell id="typVfKXonG4FbuI6hiRX-34" value="" style="endArrow=none;html=1;rounded=0;exitX=1;exitY=0.5;exitDx=0;exitDy=0;" edge="1" parent="1" source="yOGoXe4YUVA9wJELyfMM-16">
          <mxGeometry width="50" height="50" relative="1" as="geometry">
            <mxPoint x="580" y="255" as="sourcePoint" />
            <mxPoint x="880" y="90" as="targetPoint" />
          </mxGeometry>
        </mxCell>
        <mxCell id="typVfKXonG4FbuI6hiRX-35" value="" style="endArrow=none;html=1;rounded=0;exitX=1;exitY=0.5;exitDx=0;exitDy=0;entryX=0;entryY=0.3333333333333333;entryDx=0;entryDy=0;entryPerimeter=0;" edge="1" parent="1" source="Or5rSA4idkpQnBIdo2xL-26" target="typVfKXonG4FbuI6hiRX-1">
          <mxGeometry width="50" height="50" relative="1" as="geometry">
            <mxPoint x="570" y="320" as="sourcePoint" />
            <mxPoint x="620" y="270" as="targetPoint" />
          </mxGeometry>
        </mxCell>
        <mxCell id="typVfKXonG4FbuI6hiRX-36" value="" style="endArrow=none;html=1;rounded=0;exitX=1;exitY=0.5;exitDx=0;exitDy=0;entryX=0;entryY=0.3333333333333333;entryDx=0;entryDy=0;entryPerimeter=0;" edge="1" parent="1" source="Or5rSA4idkpQnBIdo2xL-27" target="typVfKXonG4FbuI6hiRX-1">
          <mxGeometry width="50" height="50" relative="1" as="geometry">
            <mxPoint x="560" y="400" as="sourcePoint" />
            <mxPoint x="610" y="350" as="targetPoint" />
          </mxGeometry>
        </mxCell>
        <mxCell id="typVfKXonG4FbuI6hiRX-37" value="" style="endArrow=none;html=1;rounded=0;exitX=1;exitY=0.5;exitDx=0;exitDy=0;entryX=0;entryY=0.3333333333333333;entryDx=0;entryDy=0;entryPerimeter=0;" edge="1" parent="1" source="Or5rSA4idkpQnBIdo2xL-28" target="typVfKXonG4FbuI6hiRX-1">
          <mxGeometry width="50" height="50" relative="1" as="geometry">
            <mxPoint x="580" y="480" as="sourcePoint" />
            <mxPoint x="630" y="430" as="targetPoint" />
          </mxGeometry>
        </mxCell>
        <mxCell id="typVfKXonG4FbuI6hiRX-38" value="" style="endArrow=none;html=1;rounded=0;exitX=1;exitY=0.5;exitDx=0;exitDy=0;entryX=0;entryY=0.3333333333333333;entryDx=0;entryDy=0;entryPerimeter=0;" edge="1" parent="1" source="Or5rSA4idkpQnBIdo2xL-29" target="typVfKXonG4FbuI6hiRX-1">
          <mxGeometry width="50" height="50" relative="1" as="geometry">
            <mxPoint x="590" y="560" as="sourcePoint" />
            <mxPoint x="640" y="510" as="targetPoint" />
          </mxGeometry>
        </mxCell>
        <mxCell id="typVfKXonG4FbuI6hiRX-39" value="" style="endArrow=none;html=1;rounded=0;exitX=1;exitY=0.5;exitDx=0;exitDy=0;entryX=0;entryY=0.3333333333333333;entryDx=0;entryDy=0;entryPerimeter=0;" edge="1" parent="1" source="typVfKXonG4FbuI6hiRX-6" target="typVfKXonG4FbuI6hiRX-1">
          <mxGeometry width="50" height="50" relative="1" as="geometry">
            <mxPoint x="770" y="330" as="sourcePoint" />
            <mxPoint x="820" y="280" as="targetPoint" />
          </mxGeometry>
        </mxCell>
        <mxCell id="typVfKXonG4FbuI6hiRX-40" value="" style="endArrow=none;html=1;rounded=0;exitX=1;exitY=0.5;exitDx=0;exitDy=0;entryX=0;entryY=0.3333333333333333;entryDx=0;entryDy=0;entryPerimeter=0;" edge="1" parent="1" source="typVfKXonG4FbuI6hiRX-7" target="typVfKXonG4FbuI6hiRX-1">
          <mxGeometry width="50" height="50" relative="1" as="geometry">
            <mxPoint x="800" y="370" as="sourcePoint" />
            <mxPoint x="850" y="320" as="targetPoint" />
          </mxGeometry>
        </mxCell>
        <mxCell id="typVfKXonG4FbuI6hiRX-41" value="" style="endArrow=none;html=1;rounded=0;exitX=1;exitY=0.5;exitDx=0;exitDy=0;" edge="1" parent="1" source="typVfKXonG4FbuI6hiRX-8">
          <mxGeometry width="50" height="50" relative="1" as="geometry">
            <mxPoint x="830" y="440" as="sourcePoint" />
            <mxPoint x="880" y="390" as="targetPoint" />
          </mxGeometry>
        </mxCell>
        <mxCell id="typVfKXonG4FbuI6hiRX-42" value="" style="endArrow=none;html=1;rounded=0;exitX=1;exitY=0.5;exitDx=0;exitDy=0;" edge="1" parent="1" source="typVfKXonG4FbuI6hiRX-9">
          <mxGeometry width="50" height="50" relative="1" as="geometry">
            <mxPoint x="830" y="440" as="sourcePoint" />
            <mxPoint x="880" y="390" as="targetPoint" />
          </mxGeometry>
        </mxCell>
        <mxCell id="typVfKXonG4FbuI6hiRX-43" value="" style="endArrow=none;html=1;rounded=0;entryX=0;entryY=0.3333333333333333;entryDx=0;entryDy=0;entryPerimeter=0;exitX=1;exitY=0.5;exitDx=0;exitDy=0;" edge="1" parent="1" source="typVfKXonG4FbuI6hiRX-8" target="typVfKXonG4FbuI6hiRX-1">
          <mxGeometry width="50" height="50" relative="1" as="geometry">
            <mxPoint x="830" y="330" as="sourcePoint" />
            <mxPoint x="880" y="280" as="targetPoint" />
          </mxGeometry>
        </mxCell>
        <mxCell id="typVfKXonG4FbuI6hiRX-44" value="" style="endArrow=none;html=1;rounded=0;entryX=0;entryY=0.3333333333333333;entryDx=0;entryDy=0;entryPerimeter=0;exitX=1;exitY=0.5;exitDx=0;exitDy=0;" edge="1" parent="1" source="typVfKXonG4FbuI6hiRX-9" target="typVfKXonG4FbuI6hiRX-1">
          <mxGeometry width="50" height="50" relative="1" as="geometry">
            <mxPoint x="820" y="390" as="sourcePoint" />
            <mxPoint x="870" y="340" as="targetPoint" />
          </mxGeometry>
        </mxCell>
        <mxCell id="typVfKXonG4FbuI6hiRX-45" value="" style="endArrow=none;html=1;rounded=0;exitX=1;exitY=0.5;exitDx=0;exitDy=0;" edge="1" parent="1" source="typVfKXonG4FbuI6hiRX-7">
          <mxGeometry width="50" height="50" relative="1" as="geometry">
            <mxPoint x="830" y="440" as="sourcePoint" />
            <mxPoint x="880" y="390" as="targetPoint" />
          </mxGeometry>
        </mxCell>
        <mxCell id="typVfKXonG4FbuI6hiRX-46" value="" style="endArrow=none;html=1;rounded=0;exitX=1;exitY=0.5;exitDx=0;exitDy=0;" edge="1" parent="1" source="typVfKXonG4FbuI6hiRX-6">
          <mxGeometry width="50" height="50" relative="1" as="geometry">
            <mxPoint x="830" y="440" as="sourcePoint" />
            <mxPoint x="880" y="390" as="targetPoint" />
          </mxGeometry>
        </mxCell>
        <mxCell id="typVfKXonG4FbuI6hiRX-47" value="" style="endArrow=none;html=1;rounded=0;exitX=1;exitY=0.5;exitDx=0;exitDy=0;" edge="1" parent="1" source="yOGoXe4YUVA9wJELyfMM-16">
          <mxGeometry width="50" height="50" relative="1" as="geometry">
            <mxPoint x="830" y="440" as="sourcePoint" />
            <mxPoint x="880" y="390" as="targetPoint" />
          </mxGeometry>
        </mxCell>
        <mxCell id="typVfKXonG4FbuI6hiRX-48" value="" style="endArrow=none;html=1;rounded=0;entryX=0;entryY=0.5;entryDx=0;entryDy=0;" edge="1" parent="1" target="yOGoXe4YUVA9wJELyfMM-16">
          <mxGeometry width="50" height="50" relative="1" as="geometry">
            <mxPoint x="-30" y="390" as="sourcePoint" />
            <mxPoint x="20" y="340" as="targetPoint" />
          </mxGeometry>
        </mxCell>
        <mxCell id="typVfKXonG4FbuI6hiRX-49" value="" style="endArrow=none;html=1;rounded=0;exitX=1;exitY=0.5;exitDx=0;exitDy=0;" edge="1" parent="1" source="Or5rSA4idkpQnBIdo2xL-29">
          <mxGeometry width="50" height="50" relative="1" as="geometry">
            <mxPoint x="830" y="440" as="sourcePoint" />
            <mxPoint x="880" y="390" as="targetPoint" />
          </mxGeometry>
        </mxCell>
        <mxCell id="typVfKXonG4FbuI6hiRX-50" value="" style="endArrow=none;html=1;rounded=0;exitX=1;exitY=0.5;exitDx=0;exitDy=0;" edge="1" parent="1" source="Or5rSA4idkpQnBIdo2xL-27">
          <mxGeometry width="50" height="50" relative="1" as="geometry">
            <mxPoint x="830" y="440" as="sourcePoint" />
            <mxPoint x="880" y="390" as="targetPoint" />
          </mxGeometry>
        </mxCell>
      </root>
    </mxGraphModel>
  </diagram>
</mxfile>
